<svg width="50" height="47" viewBox="0 0 50 47" fill="none" xmlns="http://www.w3.org/2000/svg">
<path d="M12.5 8.92858V1.78572C12.5 1.31211 12.6882 0.857911 13.023 0.523024C13.3579 0.188137 13.8121 0 14.2857 0C14.7593 0 15.2135 0.188137 15.5484 0.523024C15.8833 0.857911 16.0714 1.31211 16.0714 1.78572V8.92858C16.0714 9.40218 15.8833 9.85639 15.5484 10.1913C15.2135 10.5262 14.7593 10.7143 14.2857 10.7143C13.8121 10.7143 13.3579 10.5262 13.023 10.1913C12.6882 9.85639 12.5 9.40218 12.5 8.92858ZM21.4286 10.7143C21.9022 10.7143 22.3564 10.5262 22.6913 10.1913C23.0262 9.85639 23.2143 9.40218 23.2143 8.92858V1.78572C23.2143 1.31211 23.0262 0.857911 22.6913 0.523024C22.3564 0.188137 21.9022 0 21.4286 0C20.955 0 20.5008 0.188137 20.1659 0.523024C19.831 0.857911 19.6429 1.31211 19.6429 1.78572V8.92858C19.6429 9.40218 19.831 9.85639 20.1659 10.1913C20.5008 10.5262 20.955 10.7143 21.4286 10.7143ZM28.5715 10.7143C29.0451 10.7143 29.4993 10.5262 29.8342 10.1913C30.169 9.85639 30.3572 9.40218 30.3572 8.92858V1.78572C30.3572 1.31211 30.169 0.857911 29.8342 0.523024C29.4993 0.188137 29.0451 0 28.5715 0C28.0979 0 27.6437 0.188137 27.3088 0.523024C26.9739 0.857911 26.7857 1.31211 26.7857 1.78572V8.92858C26.7857 9.40218 26.9739 9.85639 27.3088 10.1913C27.6437 10.5262 28.0979 10.7143 28.5715 10.7143ZM50 23.2143V25C49.9993 27.2713 49.133 29.457 47.5775 31.1121C46.022 32.7671 43.8942 33.7671 41.6273 33.9085C40.4092 37.354 38.3353 40.4333 35.6005 42.8572H41.0715C41.5451 42.8572 41.9993 43.0453 42.3342 43.3802C42.6691 43.7151 42.8572 44.1693 42.8572 44.6429C42.8572 45.1165 42.6691 45.5707 42.3342 45.9056C41.9993 46.2405 41.5451 46.4286 41.0715 46.4286H1.78572C1.31211 46.4286 0.857911 46.2405 0.523024 45.9056C0.188137 45.5707 0 45.1165 0 44.6429C0 44.1693 0.188137 43.7151 0.523024 43.3802C0.857911 43.0453 1.31211 42.8572 1.78572 42.8572H7.2634C4.98505 40.8443 3.15959 38.371 1.90754 35.6007C0.655493 32.8303 0.00533674 29.8259 0 26.7857V16.0714C0 15.5978 0.188137 15.1436 0.523024 14.8088C0.857911 14.4739 1.31211 14.2857 1.78572 14.2857H41.0715C43.4395 14.2857 45.7105 15.2264 47.3849 16.9008C49.0594 18.5753 50 20.8463 50 23.2143ZM39.2858 17.8572H3.57143V26.7857C3.57832 30.1386 4.52584 33.4223 6.30626 36.2634C8.08668 39.1045 10.6286 41.389 13.6429 42.8572H29.2143C32.2286 41.389 34.7705 39.1045 36.5509 36.2634C38.3313 33.4223 39.2789 30.1386 39.2858 26.7857V17.8572ZM46.4286 23.2143C46.4283 22.1068 46.0847 21.0265 45.4451 20.1223C44.8055 19.2181 43.9014 18.5344 42.8572 18.1652V26.7857C42.8558 27.9071 42.7663 29.0266 42.5893 30.134C43.6973 29.8066 44.6698 29.1299 45.3617 28.2047C46.0536 27.2794 46.4278 26.1553 46.4286 25V23.2143Z" fill="#2C2B2B"/>
</svg>
